PathFileType	4	(X/Y/Z)	./motion_analysis/DM_ngait_tm_ss1_new.trc
DataRate	CameraRate	NumFrames	NumMarkers	Units	OrigDataRate	OrigDataStartFrame	OrigNumFrames
120	120	4	68	mm	120	1834	2097
Frame#	Time	Sternum			Neck			R_Shoulder			L_Shoulder			Xiphoid			Thoracic			R_Asis			L_Asis			R_Psis			L_Psis			Lumbar			R_Elbow			R_ElbowMedial			R_ShoulderAnterior			R_ShoulderPosterior			R_Wrist			R_Radius			R_Ulna			L_Elbow			L_ElbowMedial			L_ShoulderAnterior			L_ShoulderPosterior			L_Wrist			L_Ulna			L_Radius			L_Thigh_Superior			L_Thigh_Inferior			L_Thigh_Lateral			L_Knee_Lateral			L_Knee_Medial			L_Patella			L_Shank_Superior			L_Shank_Inferior			L_Shank_Lateral			L_Ankle_Lateral			L_Ankle_Medial			R_Thigh_Superior			R_Thigh_Inferior			R_Thigh_Lateral			R_Knee_Lateral			R_Knee_Medial			R_Patella			R_Shank_Superior			R_Shank_Inferior			R_Shank_Lateral			R_Ankle_Lateral			RankleMedial			R_Heel			R_Toe			R_Midfoot_Medial			R_Midfoot_Lateral			R_Hindfoot			R_Midfoot_Superior			R_ToeMedial			R_ToeLateral			L_Heel			L_Toe			L_Midfoot_Medial			L_Midfoot_Lateral			L_Hindfoot			L_Midfoot_Superior			L_ToeMedial			L_ToeLateral			Oglobal			Sacral			Xglobal			Yglobal			Zglobal			
		X1	Y1	Z1	X2	Y2	Z2	X3	Y3	Z3	X4	Y4	Z4	X5	Y5	Z5	X6	Y6	Z6	X7	Y7	Z7	X8	Y8	Z8	X9	Y9	Z9	X10	Y10	Z10	X11	Y11	Z11	X12	Y12	Z12	X13	Y13	Z13	X14	Y14	Z14	X15	Y15	Z15	X16	Y16	Z16	X17	Y17	Z17	X18	Y18	Z18	X19	Y19	Z19	X20	Y20	Z20	X21	Y21	Z21	X22	Y22	Z22	X23	Y23	Z23	X24	Y24	Z24	X25	Y25	Z25	X26	Y26	Z26	X27	Y27	Z27	X28	Y28	Z28	X29	Y29	Z29	X30	Y30	Z30	X31	Y31	Z31	X32	Y32	Z32	X33	Y33	Z33	X34	Y34	Z34	X35	Y35	Z35	X36	Y36	Z36	X37	Y37	Z37	X38	Y38	Z38	X39	Y39	Z39	X40	Y40	Z40	X41	Y41	Z41	X42	Y42	Z42	X43	Y43	Z43	X44	Y44	Z44	X45	Y45	Z45	X46	Y46	Z46	X47	Y47	Z47	X48	Y48	Z48	X49	Y49	Z49	X50	Y50	Z50	X51	Y51	Z51	X52	Y52	Z52	X53	Y53	Z53	X54	Y54	Z54	X55	Y55	Z55	X56	Y56	Z56	X57	Y57	Z57	X58	Y58	Z58	X59	Y59	Z59	X60	Y60	Z60	X61	Y61	Z61	X62	Y62	Z62	X63	Y63	Z63	X64	Y64	Z64	X65	Y65	Z65	X66	Y66	Z66	X67	Y67	Z67	X68	Y68	Z68	

1835	15.291667	-899.537	1336.59	463.691	-750.58	1432.93	444.082	-857.042	1361.92	291.668	-812.585	1396.67	628.251	-908.861	1175.96	479.941	-642.716	1255.66	463.866	-820.389	954.982	353.416	-799.697	962.798	627.58	-610.845	998.222	444.42	-606.563	999.326	524.193	-609.404	1048.61	478.676	-981.331	1064.42	251.5	-0	0	0	-0	0	0	-0	0	0	-1188.87	944.745	379.137	-1164.83	934.972	415.891	-1173.02	913.689	344.999	-824.809	1061.96	732.66	-0	0	0	-0	0	0	-0	0	0	-901.318	806.191	677.522	-875.013	820.883	721.671	-872.092	825.954	644.361	-705.897	787.413	657.688	-670.182	567.563	628.552	-740.937	643.962	607.147	-0	0	0	-0	0	0	-669.319	451.443	584.307	-564.929	443.493	647.413	-362.664	263.774	662.553	-483.304	317.643	587.779	-0	0	0	-0	0	0	-780.139	781.736	320.004	-890.821	597.09	360.175	-939.27	688.1180000000001	405.124	-0	0	0	-0	0	0	-992.338	540.366	434.161	-0	0	0	-909.307	203.375	344.847	-961.704	329.315	422.156	-0	0	0	-0	0	0	-829.592	75.5774	390.964	-1128.36	72.6716	386.359	-1052.57	47.7442	439.166	-1040.48	48.2414	322.52	-929.787	43.5895	335.612	-991.215	135.557	387.44	-1094.69	59.3172	431.377	-1088.25	58.714	338.026	-221.04	220.128	617.511	-438.769	45.0958	620.293	-364.736	51.4895	571.899	-355.002	60.568	685.604	-270.896	128.787	675.756	-381.724	152.249	624.527	-396.226	42.4211	576.9	-399.031	42.3746	674.475	-0	0	0	-608.704	998.774	484.307	-200	0	0	-0	0	200	-0	200	0	
1836	15.3	-899.926	1338.16	461.078	-750.926	1434.29	441.035	-858.015	1363	289.444	-812.919	1398.85	625.372	-909.645	1178.15	477.117	-642.827	1257.03	461.389	-821.143	957.553	351.403	-800.193	964.12	625.571	-611.371	999.76	442.371	-607.054	1000.93	522.292	-609.856	1050.2	476.881	-982.276	1065.71	249.554	-0	0	0	-0	0	0	-0	0	0	-1188.84	945.699	378.413	-1164.37	936.072	414.886	-1173.1	914.54	344.232	-824.014	1064.64	730.4059999999999	-0	0	0	-0	0	0	-0	0	0	-897.851	807.581	677.486	-871.596	822.766	721.473	-869.0599999999999	827.223	643.968	-709.601	786.572	654.995	-677.782	566.397	627.218	-747.0839999999999	644.021	606.2430000000001	-0	0	0	-0	0	0	-677.999	449.785	584.273	-572.627	442.605	645.931	-365.9	268.826	660.981	-488.502	319.122	587.123	-0	0	0	-0	0	0	-780.15	782.923	318.303	-888.355	597.05	359.733	-937.838	687.545	404.462	-0	0	0	-0	0	0	-988.854	539.128	433.97	-0	0	0	-901.23	203.227	344.935	-955.3339999999999	328.401	422.259	-0	0	0	-0	0	0	-819.669	75.651	390.849	-1118.49	72.2252	386.214	-1042.57	47.2196	439.035	-1030.51	48.014	322.388	-919.806	43.5716	335.444	-981.525	135.324	387.498	-1084.89	58.8787	431.332	-1078.29	58.3844	337.863	-225.037	232.851	615.54	-430.8	43.8731	619.706	-357.479	54.8084	571.638	-348.862	65.968	685.248	-269.045	139.306	674.854	-381.201	154.902	622.865	-387.83	43.3037	576.6660000000001	-391.294	44.5914	674.193	-0	0	0	-609.213	1000.34	482.331	-200	0	0	-0	0	200	-0	200	0	
1837	15.308333	-900.24	1339.79	458.714	-751.231	1435.65	438.103	-858.95	1364.08	287.478	-812.981	1401.31	622.7	-910.631	1180.45	474.499	-643.139	1258.51	459.119	-821.723	960.069	349.429	-800.511	965.515	623.667	-611.771	1001.44	440.365	-607.4349999999999	1002.67	520.395	-610.1950000000001	1051.93	475.116	-983.345	1067.17	247.417	-0	0	0	-0	0	0	-0	0	0	-1188.89	946.675	377.383	-1163.96	937.179	413.695	-1173.28	915.503	343.184	-823.078	1067.51	728.227	-0	0	0	-0	0	0	-0	0	0	-894.309	809.187	677.405	-868.149	824.853	721.27	-865.952	828.7089999999999	643.529	-713.5309999999999	785.744	652.228	-685.592	565.3390000000001	626.014	-752.929	643.961	605.111	-0	0	0	-0	0	0	-687.049	448.481	584.298	-581.04	442.474	645.453	-369.447	274.633	659.268	-494.043	320.962	586.395	-0	0	0	-0	0	0	-779.804	784.226	316.513	-885.545	597.04	359.339	-935.956	687.054	403.877	-0	0	0	-0	0	0	-985.037	538.028	434.12	-0	0	0	-893.009	203.262	344.904	-948.615	327.708	422.364	-0	0	0	-0	0	0	-809.704	75.76439999999999	390.655	-1108.63	71.7638	386.217	-1032.51	46.6933	438.93	-1020.53	47.7585	322.277	-909.821	43.5579	335.244	-971.775	135.077	387.533	-1075.03	58.4619	431.252	-1068.44	58.1597	337.815	-229.949	246.085	613.552	-423.56	42.2828	619.182	-350.672	59.6269	570.811	-343.894	72.7424	684.337	-268.565	150.722	673.766	-381.521	158.429	620.505	-380.434	44.9344	576.313	-384.438	47.3681	673.83	-0	0	0	-609.603	1002.05	480.38	-200	0	0	-0	0	200	-0	200	0	
1838	15.316667	-900.418	1341.47	456.512	-751.4400000000001	1437.11	435.247	-859.789	1365.21	285.713	-812.776	1403.81	620.039	-911.696	1176.97	463.674	-643.715	1259.88	457.155	-822.117	962.529	347.472	-800.648	967.022	621.8099999999999	-612.0119999999999	1003.21	438.361	-607.6660000000001	1004.5	518.482	-610.381	1053.75	473.333	-984.561	1068.79	245.275	-0	0	0	-0	0	0	-0	0	0	-1189.1	947.72	376.233	-1163.61	938.348	412.31	-1173.58	916.6130000000001	341.913	-821.986	1070.5	726.064	-0	0	0	-0	0	0	-0	0	0	-890.768	811.005	677.356	-864.641	827.083	721.051	-862.8440000000001	830.407	643.123	-717.639	785.098	649.615	-693.5069999999999	564.599	625.001	-759.379	645.21	604.6900000000001	-0	0	0	-0	0	0	-696.383	447.597	584.202	-589.576	442.199	644.606	-373.423	281.22	657.385	-499.957	323.348	585.373	-0	0	0	-0	0	0	-779.26	785.573	314.859	-882.443	597.123	358.657	-933.6559999999999	686.623	403.348	-0	0	0	-0	0	0	-980.73	536.921	434.454	-0	0	0	-884.626	203.369	344.831	-941.636	327.108	422.324	-0	0	0	-0	0	0	-799.739	75.86020000000001	390.531	-1098.73	71.4041	386.213	-1022.49	46.2758	438.739	-1010.5	47.5395	322.089	-899.847	43.568	335.066	-961.99	134.879	387.48	-1065.23	58.0712	431.135	-1058.6	57.9392	337.693	-236.163	259.631	611.362	-416.514	40.2274	618.772	-345.54	65.9872	570.054	-339.909	80.5249	683.4690000000001	-269.245	162.724	672.374	-382.171	163.349	618.73	-373.793	47.0328	575.931	-378.158	50.3034	673.323	-0	0	0	-609.8390000000001	1003.86	478.422	-200	0	0	-0	0	200	-0	200	0	
